<svg width="24" height="24" viewBox="0 0 24 24" fill="none" xmlns="http://www.w3.org/2000/svg">
    <path d="M7.31248 1.2796C6.79685 1.40147 6.38435 1.70616 6.15466 2.1421C6.04685 2.34366 5.60154 3.93272 4.40154 8.39054C2.85935 14.1233 2.79373 14.3858 2.79373 14.789C2.78904 15.164 2.80779 15.2437 2.93435 15.5155C3.11248 15.8905 3.40779 16.1905 3.75935 16.3593C3.90466 16.4296 4.3031 16.5562 4.6406 16.6452L5.24998 16.8046V18.9468C5.24998 20.353 5.26873 21.1733 5.30154 21.3374C5.40935 21.8296 5.68123 22.2374 6.08435 22.4952C6.55779 22.7952 6.23435 22.7858 13.1531 22.7718L19.4297 22.7577L19.6968 22.6499C20.0765 22.4952 20.4468 22.1437 20.6343 21.7593L20.789 21.4452L20.8125 14.6249L20.8406 7.8046L21.014 7.21866C21.2344 6.48272 21.2765 6.07022 21.164 5.69522C21.0187 5.17022 20.6625 4.75304 20.1984 4.55147C20.0859 4.49991 18.6 4.08741 16.8984 3.63272C15.1968 3.17804 13.1109 2.62022 12.2578 2.39054C7.57029 1.13428 7.76716 1.17647 7.31248 1.2796ZM12.1172 3.96085C14.489 4.59835 17.1375 5.30616 18 5.53585C19.4765 5.9296 19.6875 6.00928 19.6875 6.14991C19.6875 6.2296 17.4234 14.6483 17.3953 14.6765C17.3812 14.6905 16.7578 14.5405 16.0078 14.339C15.2625 14.1374 14.5547 13.9687 14.4422 13.9687C14.1937 13.9687 13.9219 14.114 13.8094 14.3015C13.7625 14.3765 13.5609 15.0655 13.3547 15.8296C13.1484 16.5983 12.9703 17.2312 12.9609 17.2405C12.9422 17.264 13.0219 17.2827 7.96873 15.928C5.53123 15.2765 4.44841 14.9671 4.38748 14.9062C4.29841 14.8171 4.31716 14.7374 5.88748 8.87335C6.96091 4.86085 7.50466 2.90616 7.56091 2.84522C7.60779 2.79835 7.68279 2.77022 7.72498 2.78428C7.76716 2.79835 9.74529 3.32804 12.1172 3.96085ZM19.1906 21.1499C19.1156 21.2296 18.8718 21.2343 13.0453 21.2343C7.04529 21.2343 6.98435 21.2343 6.8906 21.1405C6.80154 21.0515 6.79685 20.9858 6.79685 19.1483C6.79685 17.8218 6.81091 17.2499 6.84841 17.2499C6.87654 17.2499 8.35779 17.6437 10.139 18.1218C12.7219 18.8155 13.425 18.989 13.5984 18.9702C13.7765 18.9562 14.1937 18.7312 16.0359 17.6718C17.2593 16.9687 18.3281 16.3405 18.4125 16.2796C18.4922 16.2187 18.5906 16.1108 18.6281 16.0405C18.6656 15.9702 18.8156 15.4499 18.9656 14.8827L19.2422 13.8515L19.2562 17.4562C19.2656 20.7608 19.2609 21.0702 19.1906 21.1499ZM15.8906 15.9374C15.8906 15.9515 15.7687 16.0265 15.6187 16.1108C15.4734 16.1952 15.2156 16.3405 15.0515 16.4343C14.8078 16.5749 14.7609 16.589 14.7797 16.5187C14.7937 16.4671 14.85 16.2608 14.9062 16.0499L15.0047 15.6702L15.45 15.7921C15.6937 15.8577 15.8906 15.9233 15.8906 15.9374Z" fill="#2A2251"/>
    <path d="M9.11255 5.33894C8.84536 5.46082 8.70473 5.67644 8.6813 5.99519C8.66723 6.21082 8.6813 6.28582 8.77505 6.41707C8.8313 6.50613 8.93442 6.61863 9.00005 6.6655C9.15942 6.78269 16.0313 8.62488 16.3079 8.62488C16.8938 8.62488 17.25 7.99207 16.95 7.47644C16.8844 7.37332 16.7672 7.24675 16.6782 7.20457C16.5047 7.1155 9.78755 5.30613 9.49223 5.26863C9.36567 5.25457 9.2438 5.27332 9.11255 5.33894Z" fill="#2A2251"/>
    <path d="M8.30626 8.28277C7.92189 8.47027 7.77657 8.93433 7.97814 9.32808C8.03907 9.44058 8.15157 9.57183 8.22657 9.61871C8.30626 9.6609 9.95157 10.125 11.8828 10.6406C15.6281 11.6484 15.6563 11.6531 15.9328 11.4515C16.3781 11.1187 16.3828 10.4859 15.9375 10.1671C15.7969 10.064 8.8547 8.20308 8.62501 8.20308C8.53595 8.20308 8.39064 8.24058 8.30626 8.28277Z" fill="#2A2251"/>
    <path d="M7.46252 11.2499C6.96096 11.5546 6.97971 12.3139 7.50002 12.5858C7.71565 12.6983 10.6219 13.453 10.8375 13.453C11.2078 13.453 11.5219 13.1624 11.5641 12.7827C11.5969 12.5108 11.4469 12.1827 11.236 12.0514C11.025 11.9249 8.1094 11.1561 7.83752 11.1561C7.70158 11.1561 7.56096 11.1936 7.46252 11.2499Z" fill="#2A2251"/>
</svg>
