<svg width="24" height="24" viewBox="0 0 24 24" fill="none" xmlns="http://www.w3.org/2000/svg">
    <path d="M4.46719 2.02031C3.40781 2.19844 2.51719 2.96719 2.1375 4.03125L1.99219 4.42969V12V19.5703L2.1375 19.9688C2.47031 20.9016 3.12187 21.5437 4.07344 21.8812L4.42969 22.0078H12H19.5703L19.9453 21.8766C20.4375 21.7031 20.7937 21.4781 21.1359 21.1359C21.4781 20.7937 21.7031 20.4375 21.8766 19.9453L22.0078 19.5703V12V4.42969L21.8766 4.05469C21.5437 3.11719 20.8969 2.46562 19.9687 2.1375L19.5703 1.99219L12.1406 1.9875C8.05312 1.98281 4.60312 1.99687 4.46719 2.02031ZM19.5937 3.66094C19.9219 3.81562 20.1844 4.07812 20.3391 4.40625L20.4609 4.66406V12V19.3359L20.3484 19.5797C20.2125 19.8891 19.8281 20.25 19.5234 20.3719C19.2937 20.4562 19.0828 20.4609 11.9766 20.4609H4.66406L4.40625 20.3391C4.07812 20.1844 3.81562 19.9219 3.66094 19.5938L3.53906 19.3359V12V4.66406L3.66094 4.40625C3.8625 3.97969 4.2375 3.67031 4.67344 3.56719C4.77656 3.54375 7.96406 3.52969 12.0937 3.52969L19.3359 3.53906L19.5937 3.66094Z" fill="#B6B0D9"/>
    <path d="M8.03437 7.90765C7.95469 7.95453 7.71094 8.17953 7.5 8.4139C7.28437 8.64359 7.05 8.89671 6.97969 8.9764L6.84375 9.11234L6.64687 8.92015C6.38437 8.67171 6.28594 8.62484 6.02344 8.62484C5.55469 8.62484 5.25 8.92015 5.25 9.36546C5.25 9.5014 5.28281 9.67484 5.32031 9.74515C5.40469 9.9139 6.42656 10.8608 6.59062 10.9217C6.75469 10.9873 7.09687 10.9827 7.24219 10.9123C7.41562 10.8327 9.04219 9.06546 9.12656 8.86859C9.33281 8.37171 8.9625 7.82796 8.41875 7.82796C8.27812 7.82796 8.11875 7.86078 8.03437 7.90765Z" fill="#B6B0D9"/>
    <path d="M10.0875 8.71863C9.85781 8.85925 9.75 9.07019 9.75 9.37957C9.75 9.68894 9.86719 9.89988 10.125 10.0499C10.2891 10.1483 10.3406 10.1483 14.25 10.1483C18.1594 10.1483 18.2109 10.1483 18.375 10.0499C18.6328 9.89988 18.75 9.68894 18.75 9.37957C18.75 9.07019 18.6422 8.85925 18.4125 8.71863C18.2625 8.62957 18.1688 8.62488 14.25 8.62488C10.3313 8.62488 10.2375 8.62957 10.0875 8.71863Z" fill="#B6B0D9"/>
    <path d="M8.03902 13.1156C7.95933 13.1671 7.66402 13.4531 7.37339 13.7625L6.85308 14.3156L6.63746 14.1187C6.52027 14.0109 6.36558 13.8984 6.29996 13.875C5.95308 13.7437 5.47027 13.9125 5.32496 14.2218C5.22183 14.4375 5.22652 14.7984 5.33902 14.9765C5.42808 15.1312 6.36558 16.0171 6.52965 16.1109C6.67027 16.1906 7.10152 16.1859 7.2609 16.1015C7.47652 15.9937 9.07496 14.2359 9.14058 14.039C9.25777 13.6828 9.08902 13.2703 8.76089 13.1015C8.57808 13.0031 8.21246 13.0125 8.03902 13.1156Z" fill="#B6B0D9"/>
    <path d="M10.0875 13.9218C9.85781 14.0624 9.75 14.2733 9.75 14.5827C9.75 14.8921 9.86719 15.103 10.125 15.253C10.2891 15.3514 10.3406 15.3514 14.25 15.3514C18.1594 15.3514 18.2109 15.3514 18.375 15.253C18.6328 15.103 18.75 14.8921 18.75 14.5827C18.75 14.2733 18.6422 14.0624 18.4125 13.9218C18.2625 13.8327 18.1688 13.828 14.25 13.828C10.3313 13.828 10.2375 13.8327 10.0875 13.9218Z" fill="#B6B0D9"/>
</svg>
